<svg width="246" height="65" viewBox="0 0 246 65" fill="none" xmlns="http://www.w3.org/2000/svg">
<g clip-path="url(#clip0_14_115)">
<path d="M32.04 20.3673C28.8534 20.3673 25.7974 21.6331 23.5441 23.8864C21.2909 26.1396 20.025 29.1957 20.025 32.3823V48.4023C20.025 51.5889 21.2909 54.6449 23.5441 56.8982C25.7974 59.1514 28.8534 60.4173 32.04 60.4173C35.2266 60.4173 38.2827 59.1514 40.5359 56.8982C42.7892 54.6449 44.055 51.5889 44.055 48.4023V32.3823C44.055 29.1957 42.7892 26.1396 40.5359 23.8864C38.2827 21.6331 35.2266 20.3673 32.04 20.3673ZM23.5294 36.127H40.5507V44.6376H23.5294V36.127ZM32.04 56.9129C29.7861 56.9024 27.6275 56.0023 26.0337 54.4086C24.44 52.8148 23.5399 50.6562 23.5294 48.4023V48.142H40.5507V48.4023C40.5401 50.6562 39.6401 52.8148 38.0463 54.4086C36.4525 56.0023 34.2939 56.9024 32.04 56.9129V56.9129ZM40.5507 32.6226H23.5294V32.3823C23.5294 30.1251 24.4261 27.9604 26.0221 26.3644C27.6182 24.7683 29.7829 23.8717 32.04 23.8717C34.2972 23.8717 36.4619 24.7683 38.0579 26.3644C39.654 27.9604 40.5507 30.1251 40.5507 32.3823V32.6226Z" fill="#F1F1F1"/>
<path d="M61.3967 38.8103L48.0601 26.3748V44.5975C48.0601 46.7219 48.904 48.7593 50.4061 50.2615C51.9083 51.7636 53.9457 52.6075 56.0701 52.6075C58.1944 52.6075 60.2318 51.7636 61.734 50.2615C63.2361 48.7593 64.0801 46.7219 64.0801 44.5975C64.0743 43.4968 63.8316 42.4103 63.3686 41.4117C62.9056 40.4131 62.2331 39.5259 61.3967 38.8103ZM56.0701 49.1032C54.8751 49.1032 53.7291 48.6285 52.8841 47.7835C52.0391 46.9385 51.5644 45.7925 51.5644 44.5975V34.3848L59.0137 41.3335C59.4618 41.7104 59.824 42.1788 60.0762 42.7072C60.3283 43.2356 60.4645 43.8119 60.4756 44.3973C60.5024 44.9973 60.409 45.5966 60.2009 46.1599C59.9927 46.7233 59.6741 47.2394 59.2636 47.6778C58.8532 48.1162 58.3592 48.4682 57.8108 48.713C57.2623 48.9577 56.6705 49.0904 56.0701 49.1032V49.1032Z" fill="#F1F1F1"/>
<path d="M0 44.5975C0 46.7219 0.843908 48.7593 2.34607 50.2615C3.84824 51.7636 5.88562 52.6075 8.01 52.6075C10.1344 52.6075 12.1718 51.7636 13.6739 50.2615C15.1761 48.7593 16.02 46.7219 16.02 44.5975V26.3748L2.68335 38.8103C1.85201 39.5301 1.18294 40.4182 0.720367 41.4158C0.257795 42.4135 0.0122612 43.4979 0 44.5975H0ZM4.9662 41.4736L12.5156 34.3848V44.5975C12.5156 45.7925 12.0409 46.9385 11.196 47.7835C10.351 48.6285 9.20497 49.1032 8.01 49.1032C6.81503 49.1032 5.66901 48.6285 4.82404 47.7835C3.97907 46.9385 3.50438 45.7925 3.50438 44.5975C3.50684 44.002 3.63887 43.4141 3.8913 42.8746C4.14373 42.3352 4.51051 41.8571 4.9662 41.4736V41.4736Z" fill="#F1F1F1"/>
<path d="M30.0375 11.356C30.0375 9.96984 29.6265 8.61477 28.8563 7.46219C28.0862 6.30961 26.9916 5.41128 25.7109 4.8808C24.4302 4.35033 23.021 4.21153 21.6614 4.48196C20.3019 4.7524 19.053 5.41992 18.0728 6.40011C17.0926 7.3803 16.4251 8.62914 16.1547 9.98871C15.8843 11.3483 16.0231 12.7575 16.5535 14.0382C17.084 15.3189 17.9823 16.4135 19.1349 17.1836C20.2875 17.9537 21.6426 18.3648 23.0288 18.3648C24.8876 18.3648 26.6703 17.6264 27.9847 16.312C29.2991 14.9976 30.0375 13.2149 30.0375 11.356ZM19.5244 11.356C19.5244 10.6629 19.7299 9.98541 20.115 9.40912C20.5001 8.83283 21.0474 8.38366 21.6877 8.11842C22.328 7.85319 23.0327 7.78379 23.7124 7.919C24.3922 8.05422 25.0166 8.38798 25.5067 8.87808C25.9968 9.36817 26.3306 9.99259 26.4658 10.6724C26.601 11.3522 26.5316 12.0568 26.2664 12.6971C26.0012 13.3375 25.552 13.8848 24.9757 14.2698C24.3994 14.6549 23.7219 14.8604 23.0288 14.8604C22.1026 14.85 21.2173 14.4775 20.5623 13.8225C19.9074 13.1675 19.5348 12.2822 19.5244 11.356Z" fill="#F1F1F1"/>
<path d="M41.0512 4.34729C39.665 4.34729 38.31 4.75835 37.1574 5.52848C36.0048 6.29861 35.1065 7.39323 34.576 8.67391C34.0455 9.95459 33.9067 11.3638 34.1772 12.7234C34.4476 14.0829 35.1151 15.3318 36.0953 16.312C37.0755 17.2922 38.3243 17.9597 39.6839 18.2301C41.0435 18.5006 42.4527 18.3618 43.7334 17.8313C45.014 17.3008 46.1087 16.4025 46.8788 15.2499C47.6489 14.0973 48.06 12.7422 48.06 11.356C48.06 9.4972 47.3216 7.7145 46.0072 6.40011C44.6928 5.08571 42.9101 4.34729 41.0512 4.34729V4.34729ZM41.0512 14.8604C40.3581 14.8604 39.6806 14.6549 39.1043 14.2698C38.528 13.8848 38.0789 13.3374 37.8136 12.6971C37.5484 12.0568 37.479 11.3522 37.6142 10.6724C37.7494 9.99259 38.0832 9.36817 38.5733 8.87807C39.0634 8.38798 39.6878 8.05422 40.3676 7.919C41.0473 7.78378 41.752 7.85318 42.3923 8.11842C43.0326 8.38366 43.58 8.83282 43.965 9.40911C44.3501 9.9854 44.5556 10.6629 44.5556 11.356C44.5452 12.2822 44.1727 13.1675 43.5177 13.8225C42.8627 14.4775 41.9774 14.85 41.0512 14.8604Z" fill="#F1F1F1"/>
</g>
<path d="M91.8468 26.3663V44.3823H86.9828V26.3663H80.9348V22.0463H97.8948V26.3663H91.8468ZM105.689 44.7663C104.451 44.7663 103.342 44.5636 102.361 44.1583C101.401 43.753 100.579 43.1663 99.8966 42.3983C99.2352 41.6303 98.7232 40.7023 98.3606 39.6143C97.9979 38.5263 97.8166 37.3103 97.8166 35.9663C97.8166 34.6223 97.9979 33.4063 98.3606 32.3183C98.7232 31.2303 99.2352 30.313 99.8966 29.5663C100.579 28.7983 101.401 28.2116 102.361 27.8063C103.342 27.401 104.451 27.1983 105.689 27.1983C106.926 27.1983 108.025 27.401 108.985 27.8063C109.966 28.2116 110.787 28.7983 111.449 29.5663C112.131 30.313 112.654 31.2303 113.017 32.3183C113.379 33.4063 113.561 34.6223 113.561 35.9663C113.561 37.3103 113.379 38.5263 113.017 39.6143C112.654 40.7023 112.131 41.6303 111.449 42.3983C110.787 43.1663 109.966 43.753 108.985 44.1583C108.025 44.5636 106.926 44.7663 105.689 44.7663ZM105.689 41.0223C106.627 41.0223 107.353 40.7343 107.865 40.1583C108.377 39.5823 108.633 38.761 108.633 37.6943V34.2703C108.633 33.2036 108.377 32.3823 107.865 31.8063C107.353 31.2303 106.627 30.9423 105.689 30.9423C104.75 30.9423 104.025 31.2303 103.513 31.8063C103.001 32.3823 102.745 33.2036 102.745 34.2703V37.6943C102.745 38.761 103.001 39.5823 103.513 40.1583C104.025 40.7343 104.75 41.0223 105.689 41.0223ZM117.191 22.0463H125.607C127.079 22.0463 128.423 22.281 129.639 22.7503C130.855 23.2196 131.89 23.9236 132.743 24.8623C133.596 25.7796 134.258 26.9423 134.727 28.3503C135.196 29.737 135.431 31.3583 135.431 33.2143C135.431 35.0703 135.196 36.7023 134.727 38.1103C134.258 39.497 133.596 40.6596 132.743 41.5983C131.89 42.5156 130.855 43.209 129.639 43.6783C128.423 44.1476 127.079 44.3823 125.607 44.3823H117.191V22.0463ZM125.607 40.0623C127.058 40.0623 128.199 39.657 129.031 38.8463C129.863 38.0356 130.279 36.7343 130.279 34.9423V31.4863C130.279 29.6943 129.863 28.393 129.031 27.5823C128.199 26.7716 127.058 26.3663 125.607 26.3663H122.055V40.0623H125.607ZM146.064 44.7663C144.826 44.7663 143.717 44.5636 142.736 44.1583C141.776 43.753 140.954 43.1663 140.272 42.3983C139.61 41.6303 139.098 40.7023 138.736 39.6143C138.373 38.5263 138.192 37.3103 138.192 35.9663C138.192 34.6223 138.373 33.4063 138.736 32.3183C139.098 31.2303 139.61 30.313 140.272 29.5663C140.954 28.7983 141.776 28.2116 142.736 27.8063C143.717 27.401 144.826 27.1983 146.064 27.1983C147.301 27.1983 148.4 27.401 149.36 27.8063C150.341 28.2116 151.162 28.7983 151.824 29.5663C152.506 30.313 153.029 31.2303 153.392 32.3183C153.754 33.4063 153.936 34.6223 153.936 35.9663C153.936 37.3103 153.754 38.5263 153.392 39.6143C153.029 40.7023 152.506 41.6303 151.824 42.3983C151.162 43.1663 150.341 43.753 149.36 44.1583C148.4 44.5636 147.301 44.7663 146.064 44.7663ZM146.064 41.0223C147.002 41.0223 147.728 40.7343 148.24 40.1583C148.752 39.5823 149.008 38.761 149.008 37.6943V34.2703C149.008 33.2036 148.752 32.3823 148.24 31.8063C147.728 31.2303 147.002 30.9423 146.064 30.9423C145.125 30.9423 144.4 31.2303 143.888 31.8063C143.376 32.3823 143.12 33.2036 143.12 34.2703V37.6943C143.12 38.761 143.376 39.5823 143.888 40.1583C144.4 40.7343 145.125 41.0223 146.064 41.0223ZM176.606 48.2543H169.886C167.859 48.2543 166.046 47.9343 164.446 47.2943C162.867 46.6543 161.523 45.7476 160.414 44.5743C159.326 43.4223 158.494 42.0463 157.918 40.4463C157.342 38.825 157.054 37.033 157.054 35.0703C157.054 33.129 157.353 31.337 157.95 29.6943C158.547 28.0516 159.401 26.6436 160.51 25.4703C161.619 24.2756 162.963 23.3476 164.542 22.6863C166.121 22.025 167.902 21.6943 169.886 21.6943C171.721 21.6943 173.395 21.9823 174.91 22.5583C176.425 23.113 177.715 23.913 178.782 24.9583C179.87 25.9823 180.702 27.241 181.278 28.7343C181.875 30.2063 182.174 31.849 182.174 33.6623C182.174 36.2223 181.63 38.217 180.542 39.6463C179.475 41.0543 178.025 41.7583 176.19 41.7583C175.038 41.7583 174.099 41.481 173.374 40.9263C172.649 40.3716 172.254 39.6463 172.19 38.7503H172.03C171.817 39.6463 171.411 40.361 170.814 40.8943C170.238 41.4276 169.417 41.6943 168.35 41.6943C166.942 41.6943 165.769 41.1396 164.83 40.0303C163.891 38.8996 163.422 37.2463 163.422 35.0703C163.422 32.8943 163.891 31.2516 164.83 30.1423C165.769 29.0116 166.942 28.4463 168.35 28.4463C169.246 28.4463 169.971 28.6916 170.526 29.1823C171.081 29.6516 171.454 30.2383 171.646 30.9423H171.806V28.7343H175.358V37.3423C175.358 38.409 175.827 38.9423 176.766 38.9423C177.491 38.9423 178.078 38.5583 178.526 37.7903C178.974 37.001 179.198 35.785 179.198 34.1423V33.2463C179.198 31.881 178.963 30.6543 178.494 29.5663C178.046 28.4783 177.406 27.561 176.574 26.8143C175.763 26.0676 174.782 25.4916 173.63 25.0863C172.499 24.681 171.251 24.4783 169.886 24.4783C168.371 24.4783 167.006 24.7236 165.79 25.2143C164.595 25.705 163.561 26.3983 162.686 27.2943C161.833 28.169 161.171 29.225 160.702 30.4623C160.254 31.6783 160.03 33.0116 160.03 34.4623V35.6783C160.03 37.129 160.254 38.4623 160.702 39.6783C161.171 40.873 161.833 41.897 162.686 42.7503C163.561 43.6036 164.595 44.265 165.79 44.7343C167.006 45.2036 168.371 45.4383 169.886 45.4383H176.606V48.2543ZM169.662 38.7823C170.217 38.7823 170.707 38.5796 171.134 38.1743C171.582 37.7476 171.806 37.289 171.806 36.7983V33.0863C171.806 32.5956 171.582 32.1903 171.134 31.8703C170.707 31.529 170.217 31.3583 169.662 31.3583C168.894 31.3583 168.275 31.6036 167.806 32.0943C167.358 32.585 167.134 33.2143 167.134 33.9823V36.1583C167.134 36.9263 167.358 37.5556 167.806 38.0463C168.275 38.537 168.894 38.7823 169.662 38.7823ZM184.983 44.3823V40.5103H187.863V25.9183H184.983V22.0463H195.607V25.9183H192.727V40.5103H195.607V44.3823H184.983ZM199.66 22.0463H210.508C212.364 22.0463 213.804 22.569 214.828 23.6143C215.873 24.6596 216.396 26.0463 216.396 27.7743C216.396 28.6276 216.278 29.353 216.044 29.9503C215.83 30.5476 215.532 31.0383 215.148 31.4223C214.785 31.8063 214.348 32.0943 213.836 32.2863C213.345 32.457 212.812 32.553 212.236 32.5743V32.7663C212.769 32.7663 213.324 32.8623 213.9 33.0543C214.497 33.2463 215.041 33.5556 215.532 33.9823C216.022 34.3876 216.428 34.921 216.748 35.5823C217.089 36.2436 217.26 37.0543 217.26 38.0143C217.26 38.889 217.11 39.721 216.812 40.5103C216.534 41.2783 216.14 41.9503 215.628 42.5263C215.116 43.1023 214.508 43.561 213.804 43.9023C213.1 44.2223 212.332 44.3823 211.5 44.3823H199.66V22.0463ZM204.524 40.2863H210.124C210.764 40.2863 211.265 40.1156 211.628 39.7743C212.012 39.4116 212.204 38.9103 212.204 38.2703V37.1823C212.204 36.5423 212.012 36.0516 211.628 35.7103C211.265 35.3476 210.764 35.1663 210.124 35.1663H204.524V40.2863ZM204.524 31.1983H209.356C209.996 31.1983 210.497 31.017 210.86 30.6543C211.222 30.2916 211.404 29.7903 211.404 29.1503V28.1903C211.404 27.5503 211.222 27.049 210.86 26.6863C210.497 26.3236 209.996 26.1423 209.356 26.1423H204.524V31.1983ZM237.708 29.7263H237.612L235.98 32.9903L231.628 40.8943L227.372 33.0223L225.676 29.5023H225.58V44.3823H221.004V22.0463H226.156L231.628 32.5103H231.692L237.1 22.0463H242.284V44.3823H237.708V29.7263Z" fill="#F1F1F1"/>
<defs>
<clipPath id="clip0_14_115">
<rect width="64.08" height="64.08" fill="white" transform="translate(0 0.342285)"/>
</clipPath>
</defs>
</svg>
